{"glyphs":{"0":{"ha":1028,"x_min":63,"x_max":965,"o":"m 514 -21 q 332 8 415 -21 q 189 99 249 38 q 96 254 129 160 q 63 479 63 349 q 96 704 63 610 q 189 860 129 799 q 332 950 249 921 q 514 979 415 979 q 696 950 613 979 q 839 860 779 921 q 932 704 899 799 q 965 479 965 610 q 932 254 965 349 q 839 99 899 160 q 696 8 779 38 q 514 -21 613 -21 m 514 167 q 603 181 561 167 q 676 232 644 196 q 725 328 707 268 q 743 479 743 388 q 725 631 743 571 q 676 726 707 690 q 603 777 644 763 q 514 792 561 792 q 425 777 467 792 q 352 726 383 763 q 303 631 321 690 q 285 479 285 571 q 303 328 285 388 q 352 232 321 268 q 425 181 383 196 q 514 167 467 167 z "},"1":{"ha":944,"x_min":76,"x_max":896,"o":"m 76 194 l 410 194 l 410 715 q 344 682 385 697 q 260 656 303 667 q 177 638 217 644 q 117 632 138 632 l 104 632 l 104 819 l 113 819 q 188 829 143 819 q 278 858 232 839 q 365 901 324 876 q 428 958 406 926 l 618 958 l 618 194 l 896 194 l 896 0 l 76 0 l 76 194 z "},"2":{"ha":1021,"x_min":76,"x_max":924,"o":"m 76 181 q 145 373 76 290 q 375 513 214 456 l 557 576 q 615 598 588 586 q 663 624 642 610 q 696 656 683 639 q 708 694 708 674 q 659 765 708 744 q 521 785 610 785 q 433 778 482 785 q 330 760 383 772 q 222 729 276 747 q 118 689 168 711 l 118 910 q 204 934 154 922 q 310 956 254 946 q 424 973 367 967 q 535 979 482 979 q 826 902 729 979 q 924 694 924 825 q 911 613 924 653 q 867 535 899 572 q 782 463 836 497 q 644 400 728 429 l 482 343 q 390 308 425 324 q 334 275 354 292 q 306 240 314 258 q 299 194 299 221 l 910 194 l 910 0 l 76 0 l 76 181 z "},"3":{"ha":1000,"x_min":56,"x_max":917,"o":"m 56 271 q 231 198 142 222 q 431 174 321 174 q 560 182 508 174 q 641 205 611 190 q 683 238 671 219 q 694 278 694 257 q 682 317 694 299 q 638 351 669 336 q 551 374 606 365 q 410 382 496 382 l 271 382 l 271 528 l 596 771 l 111 771 l 111 958 l 875 958 l 875 771 l 597 563 l 597 556 q 841 461 765 532 q 917 278 917 390 q 801 56 917 132 q 431 -21 686 -21 q 230 -1 331 -21 q 56 56 129 19 l 56 271 z "},"4":{"ha":1000,"x_min":49,"x_max":951,"o":"m 49 333 l 597 958 l 813 958 l 813 354 l 951 354 l 951 181 l 813 181 l 813 0 l 604 0 l 604 181 l 49 181 l 49 333 m 604 354 l 604 701 l 299 354 l 604 354 z "},"5":{"ha":1014,"x_min":83,"x_max":944,"o":"m 83 271 q 260 198 169 222 q 472 174 351 174 q 572 184 526 174 q 651 214 618 194 q 703 262 685 233 q 722 326 722 290 q 673 416 722 381 q 528 451 624 451 q 390 431 453 451 q 264 382 326 411 l 111 465 l 189 958 l 882 958 l 882 771 l 353 771 l 326 603 q 425 633 376 619 q 549 646 474 646 q 722 620 647 646 q 845 550 796 594 q 919 447 894 506 q 944 319 944 388 q 914 181 944 244 q 823 74 883 118 q 674 4 763 29 q 472 -21 586 -21 q 260 -1 363 -21 q 83 56 157 19 l 83 271 z "},"6":{"ha":1000,"x_min":56,"x_max":965,"o":"m 265 571 q 377 626 311 607 q 538 646 443 646 q 720 623 640 646 q 854 558 800 600 q 937 456 908 515 q 965 322 965 396 q 933 180 965 243 q 842 72 901 117 q 700 3 783 28 q 514 -21 617 -21 q 170 99 285 -21 q 56 460 56 218 q 183 847 56 714 q 557 979 310 979 q 633 976 592 979 q 715 969 674 974 q 797 956 757 964 q 868 940 836 949 l 868 739 q 722 770 804 756 q 560 785 639 785 q 258 571 278 785 l 265 571 m 271 315 q 511 174 271 174 q 750 313 750 174 q 507 451 750 451 q 271 315 271 451 z "},"7":{"ha":931,"x_min":35,"x_max":882,"o":"m 215 42 q 239 231 215 135 q 312 422 263 328 q 435 603 361 515 q 611 771 510 692 l 35 771 l 35 958 l 882 958 l 882 764 q 681 591 765 678 q 540 413 596 504 q 458 222 485 321 q 431 14 431 124 l 431 0 l 215 0 l 215 42 z "},"8":{"ha":1028,"x_min":63,"x_max":965,"o":"m 222 514 q 204 524 222 514 q 164 556 186 533 q 123 613 142 578 q 104 701 104 649 q 133 812 104 761 q 214 900 161 863 q 343 958 267 938 q 514 979 419 979 q 684 958 608 979 q 813 900 760 938 q 895 812 867 863 q 924 701 924 761 q 905 613 924 649 q 864 556 886 578 q 824 524 842 533 q 806 514 806 514 l 806 507 q 831 498 806 507 q 885 463 856 489 q 940 390 915 436 q 965 271 965 343 q 935 155 965 208 q 848 63 906 101 q 706 1 790 24 q 514 -21 622 -21 q 322 1 406 -21 q 180 63 238 24 q 92 155 122 101 q 63 271 63 208 q 88 390 63 343 q 142 463 113 436 q 197 498 172 489 q 222 507 222 507 l 222 514 m 319 688 q 371 609 319 635 q 514 583 422 583 q 657 609 606 583 q 708 688 708 635 q 657 766 708 740 q 514 792 606 792 q 371 766 422 792 q 319 688 319 740 m 278 292 q 514 167 278 167 q 750 292 750 167 q 514 410 750 410 q 278 292 278 410 z "},"9":{"ha":1000,"x_min":35,"x_max":944,"o":"m 735 388 q 623 332 689 351 q 463 313 557 313 q 280 335 360 313 q 146 401 200 358 q 63 503 92 443 q 35 636 35 563 q 67 778 35 715 q 158 886 99 842 q 300 955 217 931 q 486 979 383 979 q 830 860 715 979 q 944 499 944 740 q 817 112 944 244 q 443 -21 690 -21 q 367 -18 408 -21 q 285 -10 326 -15 q 203 2 243 -6 q 132 18 164 10 l 132 219 q 278 188 196 203 q 440 174 361 174 q 742 388 722 174 l 735 388 m 729 643 q 489 785 729 785 q 250 646 250 785 q 493 507 250 507 q 729 643 729 507 z "},"¬":{"ha":347,"x_min":0,"x_max":0,"o":""},"―":{"ha":347,"x_min":0,"x_max":0,"o":""},"‖":{"ha":347,"x_min":0,"x_max":0,"o":""},"‗":{"ha":347,"x_min":0,"x_max":0,"o":""},"‛":{"ha":347,"x_min":0,"x_max":0,"o":""},"\u0000":{"ha":0,"x_min":0,"x_max":0,"o":""},"\r":{"ha":0,"x_min":0,"x_max":0,"o":""}," ":{"ha":347,"x_min":0,"x_max":0,"o":""},"!":{"ha":431,"x_min":97,"x_max":333,"o":"m 104 806 l 104 958 l 326 958 l 326 806 l 289 306 l 142 306 l 104 806 m 97 93 q 129 169 97 140 q 215 199 161 199 q 301 169 269 199 q 333 93 333 140 q 301 15 333 44 q 215 -14 269 -14 q 129 15 161 -14 q 97 93 97 44 z "},"\"":{"ha":576,"x_min":83,"x_max":493,"o":"m 83 889 l 83 958 l 250 958 l 250 889 l 222 639 l 111 639 l 83 889 m 326 889 l 326 958 l 493 958 l 493 889 l 465 639 l 354 639 l 326 889 z "},"#":{"ha":1236,"x_min":56,"x_max":1181,"o":"m 197 222 l 56 222 l 56 403 l 257 403 l 311 569 l 139 569 l 139 750 l 371 750 l 444 972 l 653 972 l 579 750 l 831 750 l 903 972 l 1111 972 l 1039 750 l 1181 750 l 1181 569 l 979 569 l 925 403 l 1097 403 l 1097 222 l 865 222 l 792 0 l 583 0 l 657 222 l 406 222 l 333 0 l 125 0 l 197 222 m 715 403 l 768 569 l 521 569 l 468 403 l 715 403 z "},"$":{"ha":1035,"x_min":76,"x_max":972,"o":"m 83 269 q 303 197 188 219 q 528 174 419 174 q 697 194 643 174 q 750 264 750 215 q 714 315 750 293 q 590 357 678 338 l 413 399 q 249 453 314 422 q 145 523 183 485 q 92 604 107 561 q 76 694 76 647 q 96 792 76 744 q 158 878 115 839 q 267 942 200 917 q 431 976 335 968 l 431 1181 l 625 1181 l 625 974 q 766 954 693 968 q 910 915 839 940 l 910 700 q 690 767 794 750 q 507 785 586 785 q 349 764 399 785 q 299 694 299 743 q 334 643 299 665 q 457 601 369 621 l 636 560 q 801 505 736 536 q 903 435 865 474 q 957 354 942 397 q 972 264 972 311 q 954 169 972 215 q 895 84 936 122 q 788 19 854 46 q 625 -17 722 -8 l 625 -222 l 431 -222 l 431 -17 q 234 8 326 -10 q 83 49 142 26 l 83 269 z "},"%":{"ha":1479,"x_min":28,"x_max":1451,"o":"m 28 694 q 106 893 28 821 q 319 965 183 965 q 533 893 456 965 q 611 694 611 821 q 533 496 611 568 q 319 424 456 424 q 106 496 183 424 q 28 694 28 568 m 896 958 l 1119 958 l 583 0 l 360 0 l 896 958 m 319 583 q 401 613 372 583 q 431 694 431 642 q 401 776 431 747 q 319 806 372 806 q 238 776 267 806 q 208 694 208 747 q 238 613 208 642 q 319 583 267 583 m 868 264 q 946 463 868 390 q 1160 535 1024 535 q 1374 463 1296 535 q 1451 264 1451 390 q 1374 65 1451 138 q 1160 -7 1296 -7 q 946 65 1024 -7 q 868 264 868 138 m 1160 153 q 1242 182 1213 153 q 1271 264 1271 211 q 1242 346 1271 317 q 1160 375 1213 375 q 1078 346 1107 375 q 1049 264 1049 317 q 1078 182 1049 211 q 1160 153 1107 153 z "},"&":{"ha":1076,"x_min":42,"x_max":1097,"o":"m 742 74 q 600 3 675 28 q 443 -21 525 -21 q 281 1 354 -21 q 153 64 207 24 q 71 160 100 104 q 42 285 42 217 q 58 376 42 332 q 103 455 75 419 q 172 516 132 490 q 257 556 211 542 q 199 647 217 604 q 181 738 181 689 q 200 826 181 782 q 262 903 219 869 q 372 958 304 938 q 536 979 439 979 q 678 969 603 979 q 813 940 753 960 l 813 744 q 701 776 768 760 q 538 792 633 792 q 469 785 496 792 q 426 769 442 779 q 403 747 410 760 q 396 721 396 735 q 415 672 396 696 q 474 608 433 649 l 760 329 q 813 433 792 376 q 846 556 835 489 l 1035 556 q 975 366 1014 453 q 883 208 936 279 l 1097 0 l 817 0 l 742 74 m 374 433 q 281 392 318 429 q 243 301 243 354 q 299 192 243 231 q 451 153 356 153 q 538 164 496 153 q 618 194 581 175 l 374 433 z "},"'":{"ha":333,"x_min":83,"x_max":250,"o":"m 83 889 l 83 958 l 250 958 l 250 889 l 222 639 l 111 639 l 83 889 z "},"(":{"ha":646,"x_min":97,"x_max":625,"o":"m 625 -389 q 437 -338 531 -389 q 267 -190 343 -287 q 144 48 192 -93 q 97 368 97 189 q 144 688 97 547 q 267 926 192 829 q 437 1074 343 1024 q 625 1125 531 1125 l 625 944 q 513 906 571 944 q 407 794 454 868 q 329 613 360 721 q 299 368 299 506 q 329 123 299 231 q 407 -58 360 15 q 513 -170 454 -132 q 625 -208 571 -208 l 625 -389 z "},")":{"ha":646,"x_min":21,"x_max":549,"o":"m 21 -208 q 133 -170 75 -208 q 239 -58 192 -132 q 317 123 286 15 q 347 368 347 231 q 317 613 347 506 q 239 794 286 721 q 133 906 192 868 q 21 944 75 944 l 21 1125 q 208 1074 114 1125 q 378 926 303 1024 q 501 688 454 829 q 549 368 549 547 q 501 48 549 189 q 378 -190 454 -93 q 208 -338 303 -287 q 21 -389 114 -389 l 21 -208 z "},"*":{"ha":583,"x_min":56,"x_max":528,"o":"m 56 672 l 117 707 l 185 736 l 117 765 l 56 800 l 118 907 l 178 872 l 239 826 l 231 903 l 231 972 l 354 972 l 354 903 l 344 826 l 406 872 l 465 907 l 528 800 l 467 765 l 397 736 l 467 707 l 528 672 l 465 564 l 404 599 l 344 643 l 354 569 l 354 500 l 229 500 l 229 569 l 238 643 l 179 599 l 118 564 l 56 672 z "},"+":{"ha":757,"x_min":56,"x_max":701,"o":"m 56 569 l 278 569 l 278 792 l 479 792 l 479 569 l 701 569 l 701 375 l 479 375 l 479 153 l 278 153 l 278 375 l 56 375 l 56 569 z "},",":{"ha":350,"x_min":42,"x_max":281,"o":"m 42 -203 q 62 -129 53 -164 q 78 -56 71 -94 q 92 30 86 -17 q 104 139 99 76 l 281 139 q 263 22 274 72 q 238 -69 251 -29 q 208 -142 224 -110 q 176 -203 193 -174 l 42 -203 z "},"-":{"ha":514,"x_min":56,"x_max":458,"o":"m 56 438 l 458 438 l 458 243 l 56 243 l 56 438 z "},".":{"ha":347,"x_min":56,"x_max":292,"o":"m 56 93 q 88 169 56 140 q 174 199 119 199 q 260 169 228 199 q 292 93 292 140 q 260 15 292 44 q 174 -14 228 -14 q 88 15 119 -14 q 56 93 56 44 z "},"/":{"ha":715,"x_min":0,"x_max":715,"o":"m 514 958 l 715 958 l 201 -306 l 0 -306 l 514 958 z "},":":{"ha":347,"x_min":56,"x_max":292,"o":"m 56 603 q 88 679 56 650 q 174 708 119 708 q 260 679 228 708 q 292 603 292 650 q 260 525 292 554 q 174 496 228 496 q 88 525 119 496 q 56 603 56 554 m 56 93 q 88 169 56 140 q 174 199 119 199 q 260 169 228 199 q 292 93 292 140 q 260 15 292 44 q 174 -14 228 -14 q 88 15 119 -14 q 56 93 56 44 z "},";":{"ha":379,"x_min":42,"x_max":310,"o":"m 74 603 q 106 679 74 650 q 192 708 138 708 q 278 679 246 708 q 310 603 310 650 q 278 525 310 554 q 192 496 246 496 q 106 525 138 496 q 74 603 74 554 m 42 -203 q 62 -129 53 -164 q 78 -56 71 -94 q 92 30 86 -17 q 104 139 99 76 l 281 139 q 263 22 274 72 q 238 -69 251 -29 q 208 -142 224 -110 q 176 -203 193 -174 l 42 -203 z "},"<":{"ha":708,"x_min":42,"x_max":625,"o":"m 42 569 l 625 813 l 625 625 l 258 472 l 625 319 l 625 132 l 42 375 l 42 569 z "},"=":{"ha":764,"x_min":56,"x_max":708,"o":"m 56 736 l 708 736 l 708 542 l 56 542 l 56 736 m 56 417 l 708 417 l 708 222 l 56 222 l 56 417 z "},">":{"ha":708,"x_min":83,"x_max":667,"o":"m 83 319 l 450 472 l 83 625 l 83 813 l 667 569 l 667 375 l 83 132 l 83 319 z "},"?":{"ha":840,"x_min":49,"x_max":813,"o":"m 261 361 q 285 469 261 426 q 347 540 310 511 q 426 586 383 568 q 505 622 468 604 q 566 663 542 640 q 590 722 590 686 q 556 773 590 754 q 438 792 521 792 q 228 765 322 792 q 49 694 135 739 l 49 903 q 131 932 85 918 q 227 956 176 946 q 331 973 278 967 q 438 979 385 979 q 607 960 536 979 q 724 908 678 940 q 791 831 769 875 q 813 736 813 786 q 785 625 813 669 q 718 549 758 581 q 630 493 678 517 q 542 447 582 469 q 474 397 501 424 q 447 333 447 371 l 447 306 l 261 306 l 261 361 m 236 93 q 268 169 236 140 q 354 199 300 199 q 440 169 408 199 q 472 93 472 140 q 440 15 472 44 q 354 -14 408 -14 q 268 15 300 -14 q 236 93 236 44 z "},"@":{"ha":1285,"x_min":69,"x_max":1194,"o":"m 806 -264 q 742 -275 779 -272 q 674 -278 704 -278 q 422 -235 533 -278 q 231 -112 310 -193 q 111 82 153 -32 q 69 340 69 196 q 113 594 69 479 q 236 789 157 708 q 426 914 315 869 q 674 958 538 958 q 905 926 807 958 q 1067 833 1003 893 q 1163 688 1132 772 q 1194 500 1194 604 l 1194 0 l 1014 0 l 1014 118 l 1008 118 q 912 21 971 56 q 764 -14 853 -14 q 633 7 693 -14 q 527 68 572 28 q 456 168 482 108 q 431 306 431 228 q 458 460 431 394 q 531 568 485 525 q 638 632 576 611 q 771 653 700 653 q 839 649 808 653 q 897 639 869 646 q 950 622 924 632 q 1007 600 976 613 q 983 665 1004 631 q 923 727 963 699 q 824 774 883 756 q 683 792 764 792 q 367 674 476 792 q 257 338 257 557 q 369 6 257 122 q 688 -111 481 -111 q 746 -108 715 -111 q 806 -97 776 -106 l 806 -264 m 1008 424 q 910 469 958 451 q 799 486 861 486 q 667 447 715 486 q 618 319 618 408 q 671 194 618 235 q 813 153 724 153 q 958 203 907 153 q 1008 347 1008 253 l 1008 424 z "},"A":{"ha":1125,"x_min":7,"x_max":1118,"o":"m 436 958 l 689 958 l 1118 0 l 883 0 l 818 153 l 304 153 l 239 0 l 7 0 l 436 958 m 735 347 l 565 742 l 556 742 l 388 347 l 735 347 z "},"B":{"ha":1125,"x_min":97,"x_max":1063,"o":"m 97 958 l 674 958 q 828 937 765 958 q 931 878 892 915 q 989 791 971 840 q 1007 688 1007 742 q 988 604 1007 638 q 947 551 969 571 q 889 515 922 528 l 889 506 q 975 464 938 493 q 1035 394 1007 439 q 1063 278 1063 350 q 1042 173 1063 224 q 975 84 1021 122 q 855 23 929 46 q 674 0 781 0 l 97 0 l 97 958 m 611 576 q 747 603 710 576 q 785 678 785 629 q 747 751 785 725 q 611 778 710 778 l 306 778 l 306 576 l 611 576 m 667 181 q 803 213 765 181 q 840 289 840 244 q 803 364 840 332 q 667 396 765 396 l 306 396 l 306 181 l 667 181 z "},"C":{"ha":1118,"x_min":63,"x_max":1028,"o":"m 1028 56 q 853 -1 954 19 q 653 -21 753 -21 q 397 15 507 -21 q 212 117 286 51 q 100 276 138 183 q 63 479 63 368 q 100 683 63 590 q 212 841 138 775 q 397 943 286 907 q 653 979 507 979 q 853 959 753 979 q 1028 903 954 939 l 1028 688 q 852 760 942 736 q 653 785 763 785 q 377 702 469 785 q 285 479 285 619 q 377 256 285 339 q 653 174 469 174 q 852 198 763 174 q 1028 271 942 222 l 1028 56 z "},"D":{"ha":1174,"x_min":97,"x_max":1111,"o":"m 97 958 l 535 958 q 776 926 669 958 q 958 831 883 893 q 1072 681 1032 769 q 1111 479 1111 592 q 1072 278 1111 367 q 958 127 1032 189 q 776 33 883 65 q 535 0 669 0 l 97 0 l 97 958 m 533 194 q 800 267 711 194 q 889 479 889 339 q 800 692 889 619 q 533 764 711 764 l 306 764 l 306 194 l 533 194 z "},"E":{"ha":1021,"x_min":97,"x_max":931,"o":"m 97 958 l 931 958 l 931 771 l 306 771 l 306 576 l 910 576 l 910 389 l 306 389 l 306 188 l 931 188 l 931 0 l 97 0 l 97 958 z "},"F":{"ha":972,"x_min":97,"x_max":917,"o":"m 97 958 l 917 958 l 917 771 l 306 771 l 306 542 l 903 542 l 903 354 l 306 354 l 306 0 l 97 0 l 97 958 z "},"G":{"ha":1236,"x_min":63,"x_max":1146,"o":"m 493 576 l 1146 576 l 1146 117 q 917 13 1046 46 q 653 -21 788 -21 q 406 15 515 -21 q 219 115 296 50 q 103 274 143 181 q 63 483 63 368 q 103 692 63 600 q 223 849 144 785 q 415 946 301 913 q 674 979 528 979 q 801 973 738 979 q 924 957 865 967 q 1032 935 982 947 q 1118 910 1082 922 l 1118 689 q 898 762 1014 739 q 674 785 782 785 q 380 708 475 785 q 285 483 285 631 q 674 174 285 174 q 787 182 739 174 q 867 201 835 190 q 917 221 900 211 q 938 232 935 231 l 938 389 l 493 389 l 493 576 z "},"H":{"ha":1167,"x_min":97,"x_max":1069,"o":"m 97 958 l 306 958 l 306 576 l 861 576 l 861 958 l 1069 958 l 1069 0 l 861 0 l 861 382 l 306 382 l 306 0 l 97 0 l 97 958 z "},"I":{"ha":403,"x_min":97,"x_max":306,"o":"m 97 958 l 306 958 l 306 0 l 97 0 l 97 958 z "},"J":{"ha":868,"x_min":56,"x_max":778,"o":"m 56 217 q 110 197 78 206 q 176 184 142 189 q 245 176 210 179 q 313 174 281 174 q 429 184 381 174 q 509 220 478 194 q 555 290 540 246 q 569 403 569 335 l 569 764 l 125 764 l 125 958 l 778 958 l 778 403 q 750 208 778 288 q 667 76 722 128 q 526 2 611 25 q 326 -21 440 -21 q 259 -19 294 -21 q 188 -12 224 -17 q 119 -2 153 -8 q 56 14 85 4 l 56 217 z "},"K":{"ha":1076,"x_min":97,"x_max":1104,"o":"m 97 958 l 306 958 l 306 532 l 782 958 l 1069 958 l 628 564 l 1104 0 l 833 0 l 472 425 l 306 276 l 306 0 l 97 0 l 97 958 z "},"L":{"ha":903,"x_min":97,"x_max":889,"o":"m 97 958 l 306 958 l 306 194 l 889 194 l 889 0 l 97 0 l 97 958 z "},"M":{"ha":1479,"x_min":97,"x_max":1382,"o":"m 97 958 l 385 958 l 738 233 l 747 233 l 1100 958 l 1382 958 l 1382 0 l 1174 0 l 1174 653 l 1164 653 l 847 0 l 632 0 l 315 653 l 306 653 l 306 0 l 97 0 l 97 958 z "},"N":{"ha":1181,"x_min":97,"x_max":1083,"o":"m 97 958 l 368 958 l 876 258 l 886 258 l 886 958 l 1083 958 l 1083 0 l 813 0 l 304 700 l 294 700 l 294 0 l 97 0 l 97 958 z "},"O":{"ha":1278,"x_min":63,"x_max":1215,"o":"m 63 479 q 102 688 63 596 q 216 845 142 781 q 397 944 290 910 q 639 979 504 979 q 881 944 774 979 q 1062 845 988 910 q 1176 688 1136 781 q 1215 479 1215 596 q 1176 269 1215 363 q 1062 112 1136 176 q 881 13 988 47 q 639 -21 774 -21 q 397 13 504 -21 q 216 112 290 47 q 102 269 142 176 q 63 479 63 363 m 285 479 q 374 251 285 328 q 639 174 464 174 q 903 251 814 174 q 993 479 993 328 q 903 708 993 631 q 639 785 813 785 q 375 708 465 785 q 285 479 285 631 z "},"P":{"ha":1042,"x_min":97,"x_max":986,"o":"m 97 958 l 569 958 q 755 935 676 958 q 885 868 833 911 q 961 765 936 825 q 986 632 986 704 q 961 499 986 558 q 885 396 936 439 q 755 329 833 353 q 569 306 676 306 l 306 306 l 306 0 l 97 0 l 97 958 m 590 500 q 722 535 679 500 q 764 632 764 569 q 720 729 764 694 q 576 764 676 764 l 306 764 l 306 500 l 590 500 z "},"Q":{"ha":1278,"x_min":63,"x_max":1243,"o":"m 1050 136 q 1149 131 1097 135 q 1243 118 1201 126 l 1243 -62 q 1133 -44 1189 -51 q 1011 -31 1076 -36 q 869 -23 946 -25 q 700 -21 793 -21 q 444 8 561 -21 q 243 99 328 38 q 110 254 158 160 q 63 479 63 349 q 102 688 63 596 q 216 845 142 781 q 397 944 290 910 q 639 979 504 979 q 881 944 774 979 q 1062 845 988 910 q 1176 688 1136 781 q 1215 479 1215 596 q 1173 285 1215 369 q 1049 142 1131 200 l 1050 136 m 285 479 q 374 251 285 328 q 639 174 464 174 q 903 251 814 174 q 993 479 993 328 q 903 708 993 631 q 639 785 813 785 q 375 708 465 785 q 285 479 285 631 z "},"R":{"ha":1083,"x_min":97,"x_max":1049,"o":"m 97 958 l 569 958 q 883 876 779 958 q 986 646 986 793 q 963 531 986 579 q 906 448 940 482 q 831 393 871 414 q 757 363 792 372 l 757 354 l 1049 0 l 783 0 l 508 333 l 306 333 l 306 0 l 97 0 l 97 958 m 569 521 q 719 554 674 521 q 764 646 764 588 q 719 738 764 704 q 569 771 674 771 l 306 771 l 306 521 l 569 521 z "},"S":{"ha":1021,"x_min":76,"x_max":972,"o":"m 83 269 q 303 197 188 219 q 528 174 419 174 q 697 194 643 174 q 750 264 750 215 q 714 315 750 293 q 590 357 678 338 l 413 399 q 249 453 314 422 q 145 523 183 485 q 92 604 107 561 q 76 694 76 647 q 100 800 76 749 q 175 891 124 851 q 308 955 226 931 q 507 979 390 979 q 701 966 596 979 q 910 915 806 953 l 910 700 q 690 767 794 750 q 507 785 586 785 q 349 765 399 785 q 299 701 299 746 q 334 644 299 667 q 457 601 369 621 l 636 560 q 801 505 736 536 q 903 435 865 474 q 957 354 942 397 q 972 264 972 311 q 949 158 972 210 q 874 67 926 107 q 738 3 822 28 q 528 -21 653 -21 q 400 -15 464 -21 q 278 1 336 -8 q 169 24 219 11 q 83 49 119 36 l 83 269 z "},"T":{"ha":972,"x_min":21,"x_max":951,"o":"m 382 764 l 21 764 l 21 958 l 951 958 l 951 764 l 590 764 l 590 0 l 382 0 l 382 764 z "},"U":{"ha":1139,"x_min":90,"x_max":1049,"o":"m 90 958 l 299 958 l 299 438 q 372 235 299 297 q 569 174 444 174 q 767 235 694 174 q 840 438 840 297 l 840 958 l 1049 958 l 1049 438 q 924 91 1049 203 q 569 -21 799 -21 q 215 91 340 -21 q 90 438 90 203 l 90 958 z "},"V":{"ha":1097,"x_min":0,"x_max":1097,"o":"m 0 958 l 232 958 l 539 233 l 550 233 l 871 958 l 1097 958 l 667 0 l 417 0 l 0 958 z "},"W":{"ha":1625,"x_min":28,"x_max":1597,"o":"m 28 958 l 250 958 l 453 264 l 464 264 l 692 958 l 939 958 l 1153 264 l 1164 264 l 1381 958 l 1597 958 l 1294 0 l 1031 0 l 818 694 l 807 694 l 581 0 l 317 0 l 28 958 z "},"X":{"ha":979,"x_min":-7,"x_max":986,"o":"m 364 503 l 28 958 l 274 958 l 488 667 l 497 667 l 711 958 l 951 958 l 615 503 l 986 0 l 740 0 l 492 339 l 482 339 l 233 0 l -7 0 l 364 503 z "},"Y":{"ha":986,"x_min":0,"x_max":986,"o":"m 382 319 l 0 958 l 240 958 l 490 542 l 501 542 l 753 958 l 986 958 l 590 319 l 590 0 l 382 0 l 382 319 z "},"Z":{"ha":1063,"x_min":90,"x_max":972,"o":"m 90 189 l 681 771 l 99 771 l 99 958 l 972 958 l 972 769 l 382 188 l 972 188 l 972 0 l 90 0 l 90 189 z "},"[":{"ha":535,"x_min":111,"x_max":514,"o":"m 111 1125 l 514 1125 l 514 944 l 306 944 l 306 -208 l 514 -208 l 514 -389 l 111 -389 l 111 1125 z "},"\\":{"ha":715,"x_min":0,"x_max":715,"o":"m 0 958 l 201 958 l 715 -306 l 514 -306 l 0 958 z "},"]":{"ha":535,"x_min":21,"x_max":424,"o":"m 21 -208 l 229 -208 l 229 944 l 21 944 l 21 1125 l 424 1125 l 424 -389 l 21 -389 l 21 -208 z "},"^":{"ha":681,"x_min":28,"x_max":653,"o":"m 257 958 l 424 958 l 653 542 l 463 542 l 340 765 l 218 542 l 28 542 l 257 958 z "},"_":{"ha":625,"x_min":-69,"x_max":694,"o":"m -69 -97 l 694 -97 l 694 -278 l -69 -278 l -69 -97 z "},"a":{"ha":882,"x_min":49,"x_max":806,"o":"m 122 656 q 315 696 221 683 q 479 708 410 708 q 721 633 636 708 q 806 417 806 558 l 806 0 l 618 0 l 618 139 l 611 139 q 523 25 582 64 q 347 -14 464 -14 q 124 45 200 -14 q 49 210 49 104 q 122 373 49 315 q 339 440 196 431 l 618 458 q 558 522 603 501 q 432 542 513 542 q 363 538 397 542 q 292 526 329 535 q 214 506 256 518 q 122 475 172 493 l 122 656 m 353 299 q 243 222 243 293 q 274 167 243 186 q 376 149 306 149 q 551 192 489 149 q 617 315 613 235 l 353 299 z "},"b":{"ha":993,"x_min":90,"x_max":938,"o":"m 90 958 l 285 958 l 285 653 q 428 694 364 681 q 556 708 493 708 q 726 681 654 708 q 845 604 799 654 q 915 485 892 554 q 938 333 938 417 q 910 192 938 256 q 835 82 883 128 q 721 11 788 36 q 576 -14 654 -14 q 397 21 467 -14 q 285 132 326 56 l 278 132 l 278 0 l 90 0 l 90 958 m 285 375 q 345 216 285 272 q 517 160 406 160 q 622 173 579 160 q 689 210 664 186 q 725 269 714 235 q 736 347 736 304 q 684 489 736 443 q 521 535 632 535 q 398 517 458 535 q 285 472 338 500 l 285 375 z "},"c":{"ha":833,"x_min":56,"x_max":778,"o":"m 778 35 q 641 -1 719 11 q 479 -14 563 -14 q 299 13 378 -14 q 165 86 219 39 q 83 200 111 133 q 56 347 56 267 q 83 494 56 428 q 165 608 111 561 q 299 682 219 656 q 479 708 378 708 q 641 696 563 708 q 778 660 719 683 l 778 479 q 633 523 704 511 q 499 535 563 535 q 315 485 372 535 q 257 347 257 436 q 315 209 257 258 q 499 160 372 160 q 633 172 563 160 q 778 215 704 183 l 778 35 z "},"d":{"ha":993,"x_min":56,"x_max":903,"o":"m 715 132 l 708 132 q 597 21 667 56 q 417 -14 526 -14 q 272 11 339 -14 q 158 82 206 36 q 83 192 110 128 q 56 333 56 256 q 78 485 56 417 q 147 604 100 554 q 267 681 194 654 q 438 708 339 708 q 565 694 500 708 q 708 653 629 681 l 708 958 l 903 958 l 903 0 l 715 0 l 715 132 m 708 472 q 595 517 656 500 q 472 535 535 535 q 309 489 361 535 q 257 347 257 443 q 268 269 257 304 q 304 210 279 235 q 372 173 329 186 q 476 160 414 160 q 648 216 588 160 q 708 375 708 272 l 708 472 z "},"e":{"ha":938,"x_min":56,"x_max":882,"o":"m 826 39 q 681 0 760 14 q 507 -14 601 -14 q 173 81 290 -14 q 56 347 56 175 q 84 498 56 431 q 167 612 113 565 q 297 683 221 658 q 469 708 374 708 q 642 683 565 708 q 772 613 719 658 q 853 501 825 567 q 882 356 882 436 q 880 317 882 335 q 875 282 878 299 l 260 282 q 344 184 281 215 q 528 153 408 153 q 677 167 601 153 q 826 213 753 181 l 826 39 m 678 428 q 468 556 640 556 q 258 428 294 556 l 678 428 z "},"f":{"ha":583,"x_min":28,"x_max":576,"o":"m 132 528 l 28 528 l 28 694 l 132 694 l 132 708 q 151 815 132 767 q 207 899 169 864 q 302 953 244 933 q 438 972 360 972 q 513 969 474 972 q 576 958 551 967 l 576 785 q 517 796 547 793 q 458 799 486 799 q 358 774 390 799 q 326 694 326 750 l 569 694 l 569 528 l 326 528 l 326 0 l 132 0 l 132 528 z "},"g":{"ha":986,"x_min":49,"x_max":903,"o":"m 708 472 q 594 517 656 500 q 468 535 532 535 q 303 492 356 535 q 250 360 250 449 q 261 285 250 318 q 298 229 272 253 q 367 193 324 206 q 472 181 410 181 q 647 237 585 181 q 708 396 708 293 l 708 472 m 903 88 q 790 -186 903 -94 q 453 -278 676 -278 q 269 -262 358 -278 q 118 -224 181 -247 l 118 -24 q 272 -78 189 -58 q 444 -97 356 -97 q 715 88 715 -97 l 715 153 l 708 153 q 596 42 667 76 q 414 7 525 7 q 268 31 335 7 q 152 100 201 56 q 76 207 103 144 q 49 346 49 269 q 72 493 49 426 q 142 608 94 560 q 262 682 189 656 q 435 708 335 708 q 564 694 499 708 q 708 653 629 681 l 708 694 l 903 694 l 903 88 z "},"h":{"ha":944,"x_min":90,"x_max":868,"o":"m 90 958 l 285 958 l 285 639 q 378 673 338 660 q 451 694 418 686 q 513 705 485 701 q 572 708 542 708 q 694 690 639 708 q 788 636 749 671 q 847 553 826 601 q 868 444 868 504 l 868 0 l 674 0 l 674 375 q 632 492 674 450 q 515 535 590 535 q 418 515 479 535 q 285 458 357 496 l 285 0 l 90 0 l 90 958 z "},"i":{"ha":375,"x_min":76,"x_max":299,"o":"m 76 861 q 105 932 76 906 q 188 958 133 958 q 270 932 242 958 q 299 861 299 906 q 270 790 299 817 q 188 764 242 764 q 105 790 133 764 q 76 861 76 817 m 90 694 l 285 694 l 285 0 l 90 0 l 90 694 z "},"j":{"ha":375,"x_min":-160,"x_max":299,"o":"m 76 861 q 105 932 76 906 q 188 958 133 958 q 270 932 242 958 q 299 861 299 906 q 270 790 299 817 q 188 764 242 764 q 105 790 133 764 q 76 861 76 817 m -160 -76 q -106 -90 -139 -83 q -37 -97 -74 -97 q 60 -69 29 -97 q 90 19 90 -42 l 90 694 l 285 694 l 285 0 q -7 -278 285 -278 q -94 -272 -54 -278 q -160 -257 -133 -265 l -160 -76 z "},"k":{"ha":868,"x_min":90,"x_max":875,"o":"m 90 958 l 285 958 l 285 429 l 593 694 l 858 694 l 526 410 l 875 0 l 628 0 l 383 286 l 285 201 l 285 0 l 90 0 l 90 958 z "},"l":{"ha":375,"x_min":90,"x_max":285,"o":"m 90 958 l 285 958 l 285 0 l 90 0 l 90 958 z "},"m":{"ha":1438,"x_min":83,"x_max":1361,"o":"m 83 694 l 271 694 l 271 636 q 422 692 360 675 q 542 708 485 708 q 665 681 606 708 q 764 610 725 654 q 940 685 858 663 q 1083 708 1022 708 q 1191 690 1140 708 q 1279 639 1242 672 q 1339 556 1317 606 q 1361 444 1361 507 l 1361 0 l 1167 0 l 1167 375 q 1156 447 1167 417 q 1126 497 1144 478 q 1081 526 1107 517 q 1028 535 1056 535 q 934 515 992 535 q 819 458 876 494 l 819 0 l 625 0 l 625 375 q 614 447 625 417 q 584 497 603 478 q 540 526 565 517 q 486 535 514 535 q 392 515 450 535 q 278 458 335 494 l 278 0 l 83 0 l 83 694 z "},"n":{"ha":938,"x_min":83,"x_max":861,"o":"m 83 694 l 271 694 l 271 636 q 367 671 325 657 q 442 693 408 685 q 506 705 476 701 q 565 708 535 708 q 687 690 632 708 q 781 636 742 671 q 840 553 819 601 q 861 444 861 504 l 861 0 l 667 0 l 667 375 q 625 492 667 450 q 508 535 583 535 q 411 515 472 535 q 278 458 350 496 l 278 0 l 83 0 l 83 694 z "},"o":{"ha":958,"x_min":56,"x_max":903,"o":"m 56 347 q 85 497 56 431 q 169 611 114 564 q 302 683 224 658 q 479 708 381 708 q 656 683 578 708 q 790 611 735 658 q 874 497 844 564 q 903 347 903 431 q 874 197 903 264 q 790 83 844 131 q 656 11 735 36 q 479 -14 578 -14 q 302 11 381 -14 q 169 83 224 36 q 85 197 114 131 q 56 347 56 264 m 257 347 q 479 160 257 160 q 701 347 701 160 q 479 535 701 535 q 257 347 257 535 z "},"p":{"ha":986,"x_min":83,"x_max":931,"o":"m 83 694 l 278 694 l 278 653 q 422 694 357 681 q 549 708 486 708 q 719 681 647 708 q 838 604 792 654 q 908 485 885 554 q 931 333 931 417 q 903 192 931 256 q 828 82 876 128 q 714 11 781 36 q 569 -14 647 -14 q 390 21 460 -14 q 278 132 319 56 l 271 132 l 271 -264 l 83 -264 l 83 694 m 278 375 q 338 216 278 272 q 510 160 399 160 q 615 173 572 160 q 682 210 657 186 q 718 269 707 235 q 729 347 729 304 q 677 489 729 443 q 514 535 625 535 q 391 517 451 535 q 278 472 331 500 l 278 375 z "},"q":{"ha":986,"x_min":56,"x_max":903,"o":"m 715 132 l 708 132 q 597 21 667 56 q 417 -14 526 -14 q 272 11 339 -14 q 158 82 206 36 q 83 192 110 128 q 56 333 56 256 q 78 485 56 417 q 147 604 100 554 q 267 681 194 654 q 438 708 339 708 q 565 694 500 708 q 708 653 629 681 l 708 694 l 903 694 l 903 -264 l 715 -264 l 715 132 m 708 472 q 595 517 656 500 q 472 535 535 535 q 309 489 361 535 q 257 347 257 443 q 268 269 257 304 q 304 210 279 235 q 372 173 329 186 q 476 160 414 160 q 648 216 588 160 q 708 375 708 272 l 708 472 z "},"r":{"ha":653,"x_min":83,"x_max":646,"o":"m 83 694 l 271 694 l 271 622 q 422 688 350 667 q 556 708 493 708 q 600 705 578 708 q 646 694 622 701 l 646 524 q 610 531 632 528 q 565 535 589 535 q 428 513 494 535 q 278 444 361 492 l 278 0 l 83 0 l 83 694 z "},"s":{"ha":785,"x_min":63,"x_max":736,"o":"m 69 208 q 230 163 146 174 q 403 153 314 153 q 503 164 471 153 q 535 203 535 175 q 522 224 535 215 q 489 240 508 233 q 447 251 469 246 q 406 260 424 256 l 288 289 q 183 326 226 304 q 113 376 140 349 q 74 435 86 403 q 63 500 63 467 q 81 574 63 536 q 138 641 100 611 q 235 690 176 671 q 375 708 294 708 q 549 696 469 708 q 688 660 629 683 l 688 486 q 542 530 614 518 q 396 542 471 542 q 300 531 333 542 q 267 492 267 519 q 280 471 267 479 q 313 456 293 463 q 354 445 332 450 q 396 436 376 440 l 511 408 q 617 371 574 393 q 686 322 660 349 q 724 262 713 294 q 736 194 736 229 q 719 124 736 161 q 664 57 703 88 q 563 6 625 26 q 410 -14 501 -14 q 217 -3 306 -14 q 69 35 128 8 l 69 208 z "},"t":{"ha":660,"x_min":28,"x_max":611,"o":"m 153 528 l 28 528 l 28 694 l 153 694 l 153 896 l 347 896 l 347 694 l 604 694 l 604 528 l 347 528 l 347 278 q 379 185 347 211 q 479 160 411 160 q 543 164 507 160 q 611 179 579 168 l 611 6 q 578 -3 597 0 q 539 -9 560 -7 q 497 -12 518 -11 q 458 -14 476 -14 q 227 61 301 -14 q 153 264 153 136 l 153 528 z "},"u":{"ha":903,"x_min":76,"x_max":819,"o":"m 76 694 l 271 694 l 271 319 q 282 244 271 275 q 312 195 293 214 q 356 168 331 176 q 410 160 381 160 q 510 180 451 160 q 625 236 569 200 l 625 694 l 819 694 l 819 0 l 632 0 l 632 58 q 479 3 543 19 q 354 -14 415 -14 q 252 3 301 -14 q 163 56 203 21 q 100 147 124 92 q 76 278 76 203 l 76 694 z "},"v":{"ha":838,"x_min":-7,"x_max":844,"o":"m -7 694 l 203 694 l 415 201 l 425 201 l 638 694 l 844 694 l 544 0 l 293 0 l -7 694 z "},"w":{"ha":1257,"x_min":0,"x_max":1257,"o":"m 0 694 l 197 694 l 356 229 l 365 229 l 524 694 l 736 694 l 894 229 l 904 229 l 1063 694 l 1257 694 l 1021 0 l 792 0 l 633 465 l 624 465 l 465 0 l 236 0 l 0 694 z "},"x":{"ha":813,"x_min":-14,"x_max":826,"o":"m 285 361 l 10 694 l 246 694 l 403 504 l 413 504 l 569 694 l 803 694 l 528 361 l 826 0 l 590 0 l 410 219 l 400 219 l 219 0 l -14 0 l 285 361 z "},"y":{"ha":861,"x_min":0,"x_max":868,"o":"m 90 -90 q 129 -99 103 -94 q 188 -104 156 -104 q 266 -83 233 -104 q 328 0 299 -61 l 0 694 l 217 694 l 431 235 l 440 235 l 654 694 l 868 694 l 535 -14 q 463 -144 497 -93 q 391 -225 429 -196 q 307 -266 353 -254 q 201 -278 261 -278 q 141 -274 169 -278 q 90 -264 113 -271 l 90 -90 z "},"z":{"ha":826,"x_min":69,"x_max":764,"o":"m 69 174 l 490 521 l 78 521 l 78 694 l 764 694 l 764 521 l 342 174 l 764 174 l 764 0 l 69 0 l 69 174 z "},"{":{"ha":611,"x_min":35,"x_max":590,"o":"m 188 146 q 162 240 188 208 q 63 271 136 271 l 35 271 l 35 465 l 63 465 q 162 497 136 465 q 188 590 188 528 l 188 861 q 208 984 188 933 q 265 1066 228 1035 q 357 1111 303 1097 q 479 1125 411 1125 l 590 1125 l 590 944 l 507 944 q 408 913 433 944 q 382 819 382 882 l 382 590 q 376 497 382 535 q 358 433 371 458 q 323 392 344 407 q 271 372 301 378 l 271 364 q 323 343 301 357 q 358 303 344 329 q 376 240 371 278 q 382 146 382 201 l 382 -83 q 408 -177 382 -146 q 507 -208 433 -208 l 590 -208 l 590 -389 l 479 -389 q 357 -375 411 -389 q 265 -330 303 -361 q 208 -249 228 -299 q 188 -125 188 -199 l 188 146 z "},"|":{"ha":583,"x_min":194,"x_max":389,"o":"m 194 1069 l 389 1069 l 389 -333 l 194 -333 l 194 1069 z "},"}":{"ha":611,"x_min":21,"x_max":576,"o":"m 21 -208 l 104 -208 q 203 -177 178 -208 q 229 -83 229 -146 l 229 146 q 235 240 229 201 q 253 303 240 278 q 288 343 267 329 q 340 364 308 357 l 340 372 q 288 392 308 378 q 253 433 267 407 q 235 497 240 458 q 229 590 229 535 l 229 819 q 203 913 229 882 q 104 944 178 944 l 21 944 l 21 1125 l 132 1125 q 254 1111 200 1125 q 346 1066 308 1097 q 403 984 383 1035 q 424 861 424 933 l 424 590 q 449 497 424 528 q 549 465 475 465 l 576 465 l 576 271 l 549 271 q 449 240 475 271 q 424 146 424 208 l 424 -125 q 403 -249 424 -199 q 346 -330 383 -299 q 254 -375 308 -361 q 132 -389 200 -389 l 21 -389 l 21 -208 z "}," ":{"ha":347,"x_min":0,"x_max":0,"o":""},"¦":{"ha":583,"x_min":194,"x_max":389,"o":"m 194 1069 l 389 1069 l 389 486 l 194 486 l 194 1069 m 194 250 l 389 250 l 389 -333 l 194 -333 l 194 250 z "},"«":{"ha":1042,"x_min":49,"x_max":972,"o":"m 49 347 l 333 646 l 578 646 l 293 347 l 578 49 l 333 49 l 49 347 m 443 347 l 728 646 l 972 646 l 688 347 l 972 49 l 728 49 l 443 347 z "},"­":{"ha":514,"x_min":56,"x_max":458,"o":"m 56 438 l 458 438 l 458 243 l 56 243 l 56 438 z "},"»":{"ha":1042,"x_min":69,"x_max":993,"o":"m 354 347 l 69 646 l 314 646 l 599 347 l 314 49 l 69 49 l 354 347 m 749 347 l 464 646 l 708 646 l 993 347 l 708 49 l 464 49 l 749 347 z "},"Ё":{"ha":1021,"x_min":97,"x_max":931,"o":"m 213 1211 q 245 1292 213 1261 q 332 1324 278 1324 q 419 1292 386 1324 q 451 1211 451 1261 q 419 1128 451 1160 q 332 1097 386 1097 q 245 1128 278 1097 q 213 1211 213 1160 m 586 1211 q 619 1292 586 1261 q 706 1324 651 1324 q 792 1292 760 1324 q 825 1211 825 1261 q 792 1128 825 1160 q 706 1097 760 1097 q 619 1128 651 1097 q 586 1211 586 1160 m 97 958 l 931 958 l 931 771 l 306 771 l 306 576 l 910 576 l 910 389 l 306 389 l 306 188 l 931 188 l 931 0 l 97 0 l 97 958 z "},"А":{"ha":1125,"x_min":7,"x_max":1118,"o":"m 436 958 l 689 958 l 1118 0 l 883 0 l 818 153 l 304 153 l 239 0 l 7 0 l 436 958 m 735 347 l 565 742 l 556 742 l 388 347 l 735 347 z "},"Б":{"ha":1076,"x_min":97,"x_max":1021,"o":"m 97 958 l 944 958 l 944 771 l 306 771 l 306 611 l 646 611 q 922 532 824 611 q 1021 306 1021 453 q 922 79 1021 158 q 646 0 824 0 l 97 0 l 97 958 m 632 188 q 799 306 799 188 q 632 424 799 424 l 306 424 l 306 188 l 632 188 z "},"В":{"ha":1125,"x_min":97,"x_max":1063,"o":"m 97 958 l 674 958 q 828 937 765 958 q 931 878 892 915 q 989 791 971 840 q 1007 688 1007 742 q 988 604 1007 638 q 947 551 969 571 q 889 515 922 528 l 889 506 q 975 464 938 493 q 1035 394 1007 439 q 1063 278 1063 350 q 1042 173 1063 224 q 975 84 1021 122 q 855 23 929 46 q 674 0 781 0 l 97 0 l 97 958 m 611 576 q 747 603 710 576 q 785 678 785 629 q 747 751 785 725 q 611 778 710 778 l 306 778 l 306 576 l 611 576 m 667 181 q 803 213 765 181 q 840 289 840 244 q 803 364 840 332 q 667 396 765 396 l 306 396 l 306 181 l 667 181 z "},"Г":{"ha":882,"x_min":97,"x_max":847,"o":"m 97 958 l 847 958 l 847 764 l 306 764 l 306 0 l 97 0 l 97 958 z "},"Д":{"ha":1194,"x_min":14,"x_max":1174,"o":"m 14 194 l 22 194 q 99 213 65 194 q 160 280 133 231 q 209 416 188 329 q 249 640 231 503 l 290 958 l 1014 958 l 1014 194 l 1174 194 l 1174 -208 l 965 -208 l 965 0 l 222 0 l 222 -208 l 14 -208 l 14 194 m 806 194 l 806 764 l 475 764 l 456 611 q 431 440 443 510 q 404 324 418 371 q 372 247 390 276 q 331 194 354 217 l 806 194 z "},"Е":{"ha":1021,"x_min":97,"x_max":931,"o":"m 97 958 l 931 958 l 931 771 l 306 771 l 306 576 l 910 576 l 910 389 l 306 389 l 306 188 l 931 188 l 931 0 l 97 0 l 97 958 z "},"Ж":{"ha":1500,"x_min":-28,"x_max":1528,"o":"m 393 569 l 7 958 l 275 958 l 638 583 l 646 583 l 646 958 l 854 958 l 854 583 l 863 583 l 1229 958 l 1493 958 l 1107 569 l 1528 0 l 1271 0 l 961 422 l 854 314 l 854 0 l 646 0 l 646 314 l 539 422 l 229 0 l -28 0 l 393 569 z "},"З":{"ha":1007,"x_min":56,"x_max":944,"o":"m 56 265 q 144 222 96 240 q 244 192 193 204 q 349 173 296 179 q 451 167 401 167 q 581 175 529 167 q 665 199 633 183 q 709 234 696 214 q 722 278 722 254 q 710 322 722 301 q 669 357 697 342 q 594 381 640 372 q 479 389 547 389 l 299 389 l 299 576 l 465 576 q 631 606 581 576 q 681 683 681 635 q 631 760 681 728 q 465 792 581 792 q 283 769 371 792 q 104 694 196 747 l 104 903 q 279 959 183 939 q 479 979 375 979 q 799 908 694 979 q 903 701 903 838 q 887 618 903 651 q 849 563 871 585 q 806 529 828 540 q 771 514 783 518 l 771 507 q 808 493 781 504 q 867 456 836 482 q 921 386 897 431 q 944 271 944 342 q 917 152 944 206 q 830 60 889 99 q 681 0 771 21 q 465 -21 590 -21 q 363 -15 418 -21 q 253 1 308 -10 q 146 27 197 11 q 56 64 94 43 l 56 265 z "},"И":{"ha":1181,"x_min":97,"x_max":1083,"o":"m 97 958 l 306 958 l 306 250 l 315 250 l 817 958 l 1083 958 l 1083 0 l 875 0 l 875 708 l 865 708 l 364 0 l 97 0 l 97 958 z "},"Й":{"ha":1181,"x_min":97,"x_max":1083,"o":"m 313 1322 q 351 1306 325 1315 q 412 1286 376 1296 q 492 1270 447 1276 q 590 1264 538 1264 q 688 1270 643 1264 q 769 1286 733 1276 q 830 1306 804 1296 q 868 1322 856 1315 l 868 1142 q 835 1126 858 1136 q 777 1107 813 1117 q 694 1090 742 1097 q 590 1083 647 1083 q 486 1090 533 1083 q 403 1107 439 1097 q 345 1126 368 1117 q 313 1142 322 1136 l 313 1322 m 97 958 l 306 958 l 306 250 l 315 250 l 817 958 l 1083 958 l 1083 0 l 875 0 l 875 708 l 865 708 l 364 0 l 97 0 l 97 958 z "},"К":{"ha":1076,"x_min":97,"x_max":1104,"o":"m 97 958 l 306 958 l 306 532 l 782 958 l 1069 958 l 628 564 l 1104 0 l 833 0 l 472 425 l 306 276 l 306 0 l 97 0 l 97 958 z "},"Л":{"ha":1146,"x_min":14,"x_max":1049,"o":"m 14 190 q 33 188 18 189 q 63 188 49 188 q 133 202 103 188 q 185 251 163 217 q 224 344 207 286 q 254 488 240 401 l 331 958 l 1049 958 l 1049 0 l 840 0 l 840 764 l 510 764 l 456 438 q 394 197 431 288 q 312 58 358 106 q 208 -6 265 10 q 83 -21 151 -21 q 47 -18 68 -21 q 14 -12 25 -15 l 14 190 z "},"М":{"ha":1479,"x_min":97,"x_max":1382,"o":"m 97 958 l 385 958 l 738 233 l 747 233 l 1100 958 l 1382 958 l 1382 0 l 1174 0 l 1174 653 l 1164 653 l 847 0 l 632 0 l 315 653 l 306 653 l 306 0 l 97 0 l 97 958 z "},"Н":{"ha":1167,"x_min":97,"x_max":1069,"o":"m 97 958 l 306 958 l 306 576 l 861 576 l 861 958 l 1069 958 l 1069 0 l 861 0 l 861 382 l 306 382 l 306 0 l 97 0 l 97 958 z "},"О":{"ha":1278,"x_min":63,"x_max":1215,"o":"m 63 479 q 102 688 63 596 q 216 845 142 781 q 397 944 290 910 q 639 979 504 979 q 881 944 774 979 q 1062 845 988 910 q 1176 688 1136 781 q 1215 479 1215 596 q 1176 269 1215 363 q 1062 112 1136 176 q 881 13 988 47 q 639 -21 774 -21 q 397 13 504 -21 q 216 112 290 47 q 102 269 142 176 q 63 479 63 363 m 285 479 q 374 251 285 328 q 639 174 464 174 q 903 251 814 174 q 993 479 993 328 q 903 708 993 631 q 639 785 813 785 q 375 708 465 785 q 285 479 285 631 z "},"П":{"ha":1139,"x_min":97,"x_max":1042,"o":"m 97 958 l 1042 958 l 1042 0 l 833 0 l 833 764 l 306 764 l 306 0 l 97 0 l 97 958 z "},"Р":{"ha":1042,"x_min":97,"x_max":986,"o":"m 97 958 l 569 958 q 755 935 676 958 q 885 868 833 911 q 961 765 936 825 q 986 632 986 704 q 961 499 986 558 q 885 396 936 439 q 755 329 833 353 q 569 306 676 306 l 306 306 l 306 0 l 97 0 l 97 958 m 590 500 q 722 535 679 500 q 764 632 764 569 q 720 729 764 694 q 576 764 676 764 l 306 764 l 306 500 l 590 500 z "},"С":{"ha":1118,"x_min":63,"x_max":1028,"o":"m 1028 56 q 853 -1 954 19 q 653 -21 753 -21 q 397 15 507 -21 q 212 117 286 51 q 100 276 138 183 q 63 479 63 368 q 100 683 63 590 q 212 841 138 775 q 397 943 286 907 q 653 979 507 979 q 853 959 753 979 q 1028 903 954 939 l 1028 688 q 852 760 942 736 q 653 785 763 785 q 377 702 469 785 q 285 479 285 619 q 377 256 285 339 q 653 174 469 174 q 852 198 763 174 q 1028 271 942 222 l 1028 56 z "},"Т":{"ha":972,"x_min":21,"x_max":951,"o":"m 382 764 l 21 764 l 21 958 l 951 958 l 951 764 l 590 764 l 590 0 l 382 0 l 382 764 z "},"У":{"ha":965,"x_min":7,"x_max":986,"o":"m 104 188 q 150 177 124 181 q 201 174 176 174 q 247 177 225 174 q 292 192 269 181 q 337 225 314 203 q 383 283 360 247 l 7 958 l 244 958 l 500 501 l 510 501 l 760 958 l 986 958 l 701 438 q 554 194 618 285 q 435 56 490 104 q 327 -6 379 8 q 215 -21 275 -21 q 183 -19 200 -21 q 150 -13 165 -17 q 122 -6 135 -10 q 104 0 110 -3 l 104 188 z "},"Ф":{"ha":1486,"x_min":63,"x_max":1424,"o":"m 639 42 l 563 42 q 358 72 450 42 q 201 158 267 101 q 99 296 135 215 q 63 479 63 376 q 99 662 63 581 q 201 800 135 743 q 358 887 267 857 q 563 917 450 917 l 639 917 l 639 1028 l 847 1028 l 847 917 l 924 917 q 1128 887 1036 917 q 1285 800 1219 857 q 1388 662 1351 743 q 1424 479 1424 581 q 1388 296 1424 376 q 1285 158 1351 215 q 1128 72 1219 101 q 924 42 1036 42 l 847 42 l 847 -69 l 639 -69 l 639 42 m 639 229 l 639 729 l 563 729 q 355 665 432 729 q 278 479 278 601 q 355 293 278 357 q 563 229 432 229 l 639 229 m 924 229 q 1131 293 1054 229 q 1208 479 1208 357 q 1131 665 1208 601 q 924 729 1054 729 l 847 729 l 847 229 l 924 229 z "},"Х":{"ha":979,"x_min":-7,"x_max":986,"o":"m 364 503 l 28 958 l 274 958 l 488 667 l 497 667 l 711 958 l 951 958 l 615 503 l 986 0 l 740 0 l 492 339 l 482 339 l 233 0 l -7 0 l 364 503 z "},"Ц":{"ha":1215,"x_min":97,"x_max":1188,"o":"m 97 958 l 306 958 l 306 194 l 826 194 l 826 958 l 1035 958 l 1035 194 l 1188 194 l 1188 -208 l 979 -208 l 979 0 l 97 0 l 97 958 z "},"Ч":{"ha":1021,"x_min":63,"x_max":924,"o":"m 63 958 l 271 958 l 271 653 q 319 517 271 554 q 451 479 368 479 q 517 482 482 479 q 588 490 553 485 q 656 504 624 496 q 715 522 689 513 l 715 958 l 924 958 l 924 0 l 715 0 l 715 326 q 578 297 653 308 q 431 285 504 285 q 158 377 253 285 q 63 653 63 469 l 63 958 z "},"Ш":{"ha":1625,"x_min":97,"x_max":1528,"o":"m 97 958 l 306 958 l 306 194 l 708 194 l 708 958 l 917 958 l 917 194 l 1319 194 l 1319 958 l 1528 958 l 1528 0 l 97 0 l 97 958 z "},"Щ":{"ha":1708,"x_min":97,"x_max":1681,"o":"m 97 958 l 306 958 l 306 194 l 708 194 l 708 958 l 917 958 l 917 194 l 1319 194 l 1319 958 l 1528 958 l 1528 194 l 1681 194 l 1681 -208 l 1472 -208 l 1472 0 l 97 0 l 97 958 z "},"Ъ":{"ha":1174,"x_min":14,"x_max":1125,"o":"m 236 771 l 14 771 l 14 958 l 444 958 l 444 639 l 750 639 q 911 615 842 639 q 1028 549 981 592 q 1101 449 1076 507 q 1125 319 1125 390 q 1101 190 1125 249 q 1028 90 1076 132 q 911 24 981 47 q 750 0 842 0 l 236 0 l 236 771 m 736 194 q 864 228 825 194 q 903 319 903 261 q 864 411 903 378 q 736 444 825 444 l 444 444 l 444 194 l 736 194 z "},"Ы":{"ha":1389,"x_min":97,"x_max":1292,"o":"m 97 958 l 306 958 l 306 639 l 597 639 q 758 615 689 639 q 876 549 828 592 q 948 449 924 507 q 972 319 972 390 q 948 190 972 249 q 876 90 924 132 q 758 24 828 47 q 597 0 689 0 l 97 0 l 97 958 m 1083 958 l 1292 958 l 1292 0 l 1083 0 l 1083 958 m 583 194 q 711 228 672 194 q 750 319 750 261 q 711 411 750 378 q 583 444 672 444 l 306 444 l 306 194 l 583 194 z "},"Ь":{"ha":1069,"x_min":97,"x_max":1021,"o":"m 97 958 l 306 958 l 306 639 l 646 639 q 807 615 738 639 q 924 549 876 592 q 997 449 972 507 q 1021 319 1021 390 q 997 190 1021 249 q 924 90 972 132 q 807 24 876 47 q 646 0 738 0 l 97 0 l 97 958 m 632 194 q 760 228 721 194 q 799 319 799 261 q 760 411 799 378 q 632 444 721 444 l 306 444 l 306 194 l 632 194 z "},"Э":{"ha":1118,"x_min":90,"x_max":1056,"o":"m 90 271 q 266 198 176 222 q 465 174 356 174 q 703 229 614 174 q 819 382 792 285 l 313 382 l 313 576 l 819 576 q 703 729 792 674 q 465 785 614 785 q 266 760 356 785 q 90 688 176 736 l 90 903 q 265 959 164 939 q 465 979 365 979 q 722 943 611 979 q 906 841 832 907 q 1018 683 981 775 q 1056 479 1056 590 q 1018 276 1056 368 q 906 117 981 183 q 722 15 832 51 q 465 -21 611 -21 q 265 -1 365 -21 q 90 56 164 19 l 90 271 z "},"Ю":{"ha":1556,"x_min":97,"x_max":1493,"o":"m 97 958 l 306 958 l 306 576 l 458 576 q 516 751 472 676 q 626 877 560 826 q 781 953 693 928 q 972 979 869 979 q 1185 947 1089 979 q 1350 851 1282 914 q 1456 694 1418 788 q 1493 479 1493 600 q 1456 265 1493 358 q 1350 108 1418 171 q 1185 12 1282 44 q 972 -21 1089 -21 q 781 5 869 -21 q 626 81 693 31 q 516 207 560 132 q 458 382 472 282 l 306 382 l 306 0 l 97 0 l 97 958 m 971 167 q 1190 242 1108 167 q 1271 479 1271 317 q 1190 717 1271 642 q 971 792 1108 792 q 752 717 833 792 q 671 479 671 642 q 752 242 671 317 q 971 167 833 167 z "},"Я":{"ha":1090,"x_min":21,"x_max":993,"o":"m 306 333 l 306 342 q 131 453 186 376 q 76 639 76 529 q 178 872 76 785 q 493 958 279 958 l 993 958 l 993 0 l 785 0 l 785 319 l 556 319 l 283 0 l 21 0 l 306 333 m 785 507 l 785 771 l 486 771 q 342 736 386 771 q 299 639 299 701 q 341 542 299 576 q 472 507 383 507 l 785 507 z "},"а":{"ha":882,"x_min":49,"x_max":806,"o":"m 122 656 q 315 696 221 683 q 479 708 410 708 q 721 633 636 708 q 806 417 806 558 l 806 0 l 618 0 l 618 139 l 611 139 q 523 25 582 64 q 347 -14 464 -14 q 124 45 200 -14 q 49 210 49 104 q 122 373 49 315 q 339 440 196 431 l 618 458 q 558 522 603 501 q 432 542 513 542 q 363 538 397 542 q 292 526 329 535 q 214 506 256 518 q 122 475 172 493 l 122 656 m 353 299 q 243 222 243 293 q 274 167 243 186 q 376 149 306 149 q 551 192 489 149 q 617 315 613 235 l 353 299 z "},"б":{"ha":972,"x_min":56,"x_max":931,"o":"m 265 583 q 369 636 310 619 q 517 653 429 653 q 824 569 718 653 q 931 328 931 486 q 817 70 931 161 q 496 -21 703 -21 q 56 410 56 -21 l 56 471 q 167 836 56 714 q 503 958 279 958 q 735 965 650 958 q 854 979 821 972 l 854 785 q 822 780 843 782 q 763 776 801 778 q 663 772 724 774 q 511 771 601 771 q 325 725 385 771 q 258 583 265 679 l 265 583 m 264 322 q 501 153 264 153 q 729 311 729 153 q 493 479 729 479 q 319 440 375 479 q 264 322 264 401 z "},"в":{"ha":889,"x_min":83,"x_max":847,"o":"m 83 694 l 514 694 q 735 645 665 694 q 806 507 806 596 q 791 445 806 469 q 760 407 776 421 q 715 382 740 390 l 715 375 q 781 343 751 364 q 826 292 806 324 q 847 208 847 261 q 778 52 847 104 q 563 0 708 0 l 83 0 l 83 694 m 507 424 q 582 439 560 424 q 604 486 604 454 q 582 533 604 518 q 507 549 560 549 l 278 549 l 278 424 l 507 424 m 540 146 q 646 215 646 146 q 540 285 646 285 l 278 285 l 278 146 l 540 146 z "},"г":{"ha":674,"x_min":83,"x_max":660,"o":"m 83 694 l 660 694 l 660 514 l 278 514 l 278 0 l 83 0 l 83 694 z "},"д":{"ha":979,"x_min":21,"x_max":958,"o":"m 21 174 l 35 174 q 99 190 74 174 q 141 240 124 206 q 170 325 158 274 q 194 447 182 376 l 236 694 l 833 694 l 833 174 l 958 174 l 958 -181 l 764 -181 l 764 0 l 215 0 l 215 -181 l 21 -181 l 21 174 m 639 174 l 639 521 l 403 521 l 389 435 q 351 261 369 321 q 310 174 332 201 l 639 174 z "},"е":{"ha":938,"x_min":56,"x_max":882,"o":"m 826 39 q 681 0 760 14 q 507 -14 601 -14 q 173 81 290 -14 q 56 347 56 175 q 84 498 56 431 q 167 612 113 565 q 297 683 221 658 q 469 708 374 708 q 642 683 565 708 q 772 613 719 658 q 853 501 825 567 q 882 356 882 436 q 880 317 882 335 q 875 282 878 299 l 260 282 q 344 184 281 215 q 528 153 408 153 q 677 167 601 153 q 826 213 753 181 l 826 39 m 678 428 q 468 556 640 556 q 258 428 294 556 l 678 428 z "},"ж":{"ha":1207,"x_min":-14,"x_max":1221,"o":"m 313 401 l 7 694 l 264 694 l 503 446 l 510 446 l 510 694 l 697 694 l 697 446 l 704 446 l 947 694 l 1200 694 l 894 401 l 1221 0 l 975 0 l 763 274 l 697 211 l 697 0 l 510 0 l 510 211 l 444 274 l 229 0 l -14 0 l 313 401 z "},"з":{"ha":813,"x_min":56,"x_max":757,"o":"m 56 207 q 210 160 131 174 q 357 146 290 146 q 513 165 469 146 q 556 211 556 183 q 514 262 556 246 q 374 278 472 278 l 243 278 l 243 431 l 346 431 q 490 444 444 431 q 535 489 535 458 q 500 536 535 524 q 372 549 465 549 q 233 537 306 549 q 85 493 160 525 l 85 660 q 223 696 144 683 q 388 708 301 708 q 533 694 468 708 q 642 652 597 679 q 712 588 688 625 q 736 507 736 551 q 722 449 736 472 q 690 411 707 426 q 646 382 671 394 l 646 375 q 701 339 676 363 q 740 288 722 319 q 757 208 757 256 q 662 48 757 110 q 374 -14 567 -14 q 201 0 288 -14 q 56 40 115 14 l 56 207 z "},"и":{"ha":951,"x_min":83,"x_max":868,"o":"m 83 694 l 278 694 l 278 247 l 286 247 l 646 694 l 868 694 l 868 0 l 674 0 l 674 447 l 665 447 l 306 0 l 83 0 l 83 694 z "},"й":{"ha":951,"x_min":83,"x_max":868,"o":"m 226 986 q 272 970 247 978 q 326 956 296 963 q 392 946 356 950 q 476 942 429 942 q 627 956 569 942 q 726 986 685 971 l 726 826 q 624 792 685 807 q 476 778 563 778 q 329 792 390 778 q 226 826 268 807 l 226 986 m 83 694 l 278 694 l 278 247 l 286 247 l 646 694 l 868 694 l 868 0 l 674 0 l 674 447 l 665 447 l 306 0 l 83 0 l 83 694 z "},"к":{"ha":861,"x_min":83,"x_max":868,"o":"m 83 694 l 278 694 l 278 429 l 586 694 l 851 694 l 519 410 l 868 0 l 621 0 l 376 286 l 278 201 l 278 0 l 83 0 l 83 694 z "},"л":{"ha":924,"x_min":14,"x_max":840,"o":"m 14 172 q 24 171 18 171 l 43 171 q 94 178 72 171 q 135 209 117 186 q 167 275 153 232 q 196 388 182 318 l 257 694 l 840 694 l 840 0 l 646 0 l 646 514 l 419 514 l 372 286 q 330 142 354 200 q 271 50 306 85 q 188 1 236 15 q 76 -14 140 -14 q 51 -13 63 -14 q 32 -11 40 -12 q 14 -8 22 -10 l 14 172 z "},"м":{"ha":1167,"x_min":83,"x_max":1083,"o":"m 83 694 l 324 694 l 581 201 l 589 201 l 849 694 l 1083 694 l 1083 0 l 889 0 l 889 414 l 882 414 l 668 0 l 499 0 l 285 414 l 278 414 l 278 0 l 83 0 l 83 694 z "},"н":{"ha":938,"x_min":83,"x_max":854,"o":"m 83 694 l 278 694 l 278 431 l 660 431 l 660 694 l 854 694 l 854 0 l 660 0 l 660 250 l 278 250 l 278 0 l 83 0 l 83 694 z "},"о":{"ha":958,"x_min":56,"x_max":903,"o":"m 56 347 q 85 497 56 431 q 169 611 114 564 q 302 683 224 658 q 479 708 381 708 q 656 683 578 708 q 790 611 735 658 q 874 497 844 564 q 903 347 903 431 q 874 197 903 264 q 790 83 844 131 q 656 11 735 36 q 479 -14 578 -14 q 302 11 381 -14 q 169 83 224 36 q 85 197 114 131 q 56 347 56 264 m 257 347 q 479 160 257 160 q 701 347 701 160 q 479 535 701 535 q 257 347 257 535 z "},"п":{"ha":917,"x_min":83,"x_max":833,"o":"m 83 694 l 833 694 l 833 0 l 639 0 l 639 514 l 278 514 l 278 0 l 83 0 l 83 694 z "},"р":{"ha":986,"x_min":83,"x_max":931,"o":"m 83 694 l 278 694 l 278 653 q 422 694 357 681 q 549 708 486 708 q 719 681 647 708 q 838 604 792 654 q 908 485 885 554 q 931 333 931 417 q 903 192 931 256 q 828 82 876 128 q 714 11 781 36 q 569 -14 647 -14 q 390 21 460 -14 q 278 132 319 56 l 271 132 l 271 -264 l 83 -264 l 83 694 m 278 375 q 338 216 278 272 q 510 160 399 160 q 615 173 572 160 q 682 210 657 186 q 718 269 707 235 q 729 347 729 304 q 677 489 729 443 q 514 535 625 535 q 391 517 451 535 q 278 472 331 500 l 278 375 z "},"с":{"ha":833,"x_min":56,"x_max":778,"o":"m 778 35 q 641 -1 719 11 q 479 -14 563 -14 q 299 13 378 -14 q 165 86 219 39 q 83 200 111 133 q 56 347 56 267 q 83 494 56 428 q 165 608 111 561 q 299 682 219 656 q 479 708 378 708 q 641 696 563 708 q 778 660 719 683 l 778 479 q 633 523 704 511 q 499 535 563 535 q 315 485 372 535 q 257 347 257 436 q 315 209 257 258 q 499 160 372 160 q 633 172 563 160 q 778 215 704 183 l 778 35 z "},"т":{"ha":750,"x_min":14,"x_max":736,"o":"m 278 514 l 14 514 l 14 694 l 736 694 l 736 514 l 472 514 l 472 0 l 278 0 l 278 514 z "},"у":{"ha":861,"x_min":0,"x_max":868,"o":"m 90 -90 q 129 -99 103 -94 q 188 -104 156 -104 q 266 -83 233 -104 q 328 0 299 -61 l 0 694 l 217 694 l 431 235 l 440 235 l 654 694 l 868 694 l 535 -14 q 463 -144 497 -93 q 391 -225 429 -196 q 307 -266 353 -254 q 201 -278 261 -278 q 141 -274 169 -278 q 90 -264 113 -271 l 90 -90 z "},"ф":{"ha":1249,"x_min":56,"x_max":1193,"o":"m 531 0 l 472 0 q 301 24 378 0 q 170 93 225 49 q 85 202 115 138 q 56 347 56 267 q 85 492 56 428 q 170 602 115 557 q 301 671 225 647 q 472 694 378 694 l 531 694 l 531 958 l 718 958 l 718 694 l 776 694 q 947 671 869 694 q 1078 602 1024 647 q 1163 492 1133 557 q 1193 347 1193 428 q 1163 202 1193 267 q 1078 93 1133 138 q 947 24 1024 49 q 776 0 869 0 l 718 0 l 718 -264 l 531 -264 l 531 0 m 531 174 l 531 521 l 472 521 q 309 476 368 521 q 250 347 250 431 q 309 219 250 264 q 472 174 368 174 l 531 174 m 776 174 q 940 219 881 174 q 999 347 999 264 q 940 476 999 431 q 776 521 881 521 l 718 521 l 718 174 l 776 174 z "},"х":{"ha":813,"x_min":-14,"x_max":826,"o":"m 285 361 l 10 694 l 246 694 l 403 504 l 413 504 l 569 694 l 803 694 l 528 361 l 826 0 l 590 0 l 410 219 l 400 219 l 219 0 l -14 0 l 285 361 z "},"ц":{"ha":951,"x_min":83,"x_max":924,"o":"m 83 694 l 278 694 l 278 181 l 618 181 l 618 694 l 813 694 l 813 181 l 924 181 l 924 -181 l 729 -181 l 729 0 l 83 0 l 83 694 z "},"ч":{"ha":854,"x_min":56,"x_max":771,"o":"m 56 694 l 250 694 l 250 474 q 283 375 250 410 q 388 340 317 340 q 483 348 431 340 q 576 368 535 356 l 576 694 l 771 694 l 771 0 l 576 0 l 576 196 q 474 176 535 185 q 361 167 414 167 q 237 185 293 167 q 140 242 181 204 q 78 337 100 279 q 56 474 56 394 l 56 694 z "},"ш":{"ha":1264,"x_min":83,"x_max":1181,"o":"m 83 694 l 278 694 l 278 181 l 535 181 l 535 694 l 729 694 l 729 181 l 986 181 l 986 694 l 1181 694 l 1181 0 l 83 0 l 83 694 z "},"щ":{"ha":1319,"x_min":83,"x_max":1292,"o":"m 83 694 l 278 694 l 278 181 l 535 181 l 535 694 l 729 694 l 729 181 l 986 181 l 986 694 l 1181 694 l 1181 181 l 1292 181 l 1292 -181 l 1097 -181 l 1097 0 l 83 0 l 83 694 z "},"ъ":{"ha":972,"x_min":14,"x_max":931,"o":"m 194 528 l 14 528 l 14 694 l 389 694 l 389 493 l 632 493 q 853 429 775 493 q 931 247 931 365 q 853 65 931 129 q 632 0 775 0 l 194 0 l 194 528 m 618 167 q 703 186 676 167 q 729 247 729 206 q 703 307 729 288 q 618 326 676 326 l 389 326 l 389 167 l 618 167 z "},"ы":{"ha":1139,"x_min":83,"x_max":1056,"o":"m 83 694 l 278 694 l 278 493 l 493 493 q 714 429 636 493 q 792 247 792 365 q 714 65 792 129 q 493 0 636 0 l 83 0 l 83 694 m 861 694 l 1056 694 l 1056 0 l 861 0 l 861 694 m 479 167 q 564 186 538 167 q 590 247 590 206 q 564 307 590 288 q 479 326 538 326 l 278 326 l 278 167 l 479 167 z "},"ь":{"ha":861,"x_min":83,"x_max":819,"o":"m 83 694 l 278 694 l 278 493 l 521 493 q 742 429 664 493 q 819 247 819 365 q 742 65 819 129 q 521 0 664 0 l 83 0 l 83 694 m 507 167 q 592 186 565 167 q 618 247 618 206 q 592 307 618 288 q 507 326 565 326 l 278 326 l 278 167 l 507 167 z "},"э":{"ha":840,"x_min":63,"x_max":785,"o":"m 63 215 q 210 172 138 183 q 350 160 282 160 q 503 189 446 160 q 581 271 560 218 l 250 271 l 250 424 l 581 424 q 503 506 560 476 q 350 535 446 535 q 210 523 282 535 q 63 479 138 511 l 63 660 q 199 696 121 683 q 361 708 278 708 q 542 682 463 708 q 675 608 621 656 q 757 494 729 561 q 785 347 785 428 q 757 200 785 267 q 675 86 729 133 q 542 13 621 39 q 361 -14 463 -14 q 199 -1 278 -14 q 63 35 121 11 l 63 215 z "},"ю":{"ha":1208,"x_min":83,"x_max":1153,"o":"m 83 694 l 278 694 l 278 431 l 368 431 q 415 552 381 500 q 499 639 449 604 q 615 691 550 674 q 757 708 681 708 q 916 686 843 708 q 1042 619 989 664 q 1124 506 1094 574 q 1153 347 1153 439 q 1124 188 1153 256 q 1042 76 1094 121 q 916 8 989 31 q 757 -14 843 -14 q 618 2 682 -14 q 503 51 554 18 q 419 134 453 85 q 371 250 385 183 l 278 250 l 278 0 l 83 0 l 83 694 m 563 347 q 616 206 563 253 q 757 160 669 160 q 898 206 844 160 q 951 347 951 253 q 898 488 951 440 q 757 535 844 535 q 616 488 669 535 q 563 347 563 442 z "},"я":{"ha":889,"x_min":42,"x_max":806,"o":"m 224 225 l 224 232 q 110 317 150 258 q 69 451 69 375 q 90 550 69 506 q 148 626 110 594 q 242 676 186 658 q 368 694 297 694 l 806 694 l 806 0 l 611 0 l 611 208 l 446 208 l 282 0 l 42 0 l 224 225 m 611 375 l 611 528 l 382 528 q 297 508 324 528 q 271 451 271 488 q 297 395 271 415 q 382 375 324 375 l 611 375 z "},"ё":{"ha":938,"x_min":56,"x_max":882,"o":"m 175 894 q 208 971 175 942 q 294 1000 240 1000 q 381 971 349 1000 q 414 894 414 942 q 381 817 414 846 q 294 788 349 788 q 208 817 240 788 q 175 894 175 846 m 549 894 q 581 971 549 942 q 668 1000 614 1000 q 755 971 722 1000 q 788 894 788 942 q 755 817 788 846 q 668 788 722 788 q 581 817 614 788 q 549 894 549 846 m 826 39 q 681 0 760 14 q 507 -14 601 -14 q 173 81 290 -14 q 56 347 56 175 q 84 498 56 431 q 167 612 113 565 q 297 683 221 658 q 469 708 374 708 q 642 683 565 708 q 772 613 719 658 q 853 501 825 567 q 882 356 882 436 q 880 317 882 335 q 875 282 878 299 l 260 282 q 344 184 281 215 q 528 153 408 153 q 677 167 601 153 q 826 213 753 181 l 826 39 m 678 428 q 468 556 640 556 q 258 428 294 556 l 678 428 z "},"–":{"ha":778,"x_min":56,"x_max":722,"o":"m 56 438 l 722 438 l 722 250 l 56 250 l 56 438 z "},"—":{"ha":1000,"x_min":56,"x_max":944,"o":"m 56 438 l 944 438 l 944 250 l 56 250 l 56 438 z "},"‘":{"ha":342,"x_min":69,"x_max":300,"o":"m 69 631 q 87 739 78 693 q 107 822 96 785 q 133 892 118 860 q 168 958 147 924 l 300 958 q 278 879 288 914 q 263 809 269 844 q 253 731 257 774 q 243 631 249 689 l 69 631 z "},"’":{"ha":342,"x_min":69,"x_max":300,"o":"m 69 631 q 91 710 82 675 q 106 780 100 744 q 117 858 113 815 q 126 958 121 900 l 300 958 q 283 850 292 896 q 263 767 274 804 q 237 697 251 729 q 201 631 222 665 l 69 631 z "},"‚":{"ha":342,"x_min":42,"x_max":272,"o":"m 42 -189 q 63 -110 54 -144 q 78 -40 72 -75 q 89 38 85 -4 q 99 139 93 81 l 272 139 q 255 31 264 76 q 235 -53 246 -15 q 209 -122 224 -90 q 174 -189 194 -154 l 42 -189 z "},"“":{"ha":585,"x_min":42,"x_max":515,"o":"m 42 631 q 59 739 50 693 q 79 822 68 785 q 105 892 90 860 q 140 958 119 924 l 272 958 q 251 879 260 914 q 235 809 242 844 q 225 731 229 774 q 215 631 221 689 l 42 631 m 285 631 q 302 739 293 693 q 322 822 311 785 q 348 892 333 860 q 383 958 363 924 l 515 958 q 494 879 503 914 q 478 809 485 844 q 468 731 472 774 q 458 631 464 689 l 285 631 z "},"”":{"ha":585,"x_min":69,"x_max":543,"o":"m 69 631 q 91 710 82 675 q 106 780 100 744 q 117 858 113 815 q 126 958 121 900 l 300 958 q 283 850 292 896 q 263 767 274 804 q 237 697 251 729 q 201 631 222 665 l 69 631 m 313 631 q 334 710 325 675 q 349 780 343 744 q 360 858 356 815 q 369 958 364 900 l 543 958 q 526 850 535 896 q 506 767 517 804 q 480 697 494 729 q 444 631 465 665 l 313 631 z "},"„":{"ha":585,"x_min":42,"x_max":515,"o":"m 42 -189 q 63 -110 54 -144 q 78 -40 72 -75 q 89 38 85 -4 q 99 139 93 81 l 272 139 q 255 31 264 76 q 235 -53 246 -15 q 209 -122 224 -90 q 174 -189 194 -154 l 42 -189 m 285 -189 q 306 -110 297 -144 q 322 -40 315 -75 q 332 38 328 -4 q 342 139 336 81 l 515 139 q 498 31 507 76 q 478 -53 489 -15 q 452 -122 467 -90 q 417 -189 438 -154 l 285 -189 z "},"…":{"ha":1083,"x_min":56,"x_max":1028,"o":"m 56 93 q 88 169 56 140 q 174 199 119 199 q 260 169 228 199 q 292 93 292 140 q 260 15 292 44 q 174 -14 228 -14 q 88 15 119 -14 q 56 93 56 44 m 424 93 q 456 169 424 140 q 542 199 488 199 q 628 169 596 199 q 660 93 660 140 q 628 15 660 44 q 542 -14 596 -14 q 456 15 488 -14 q 424 93 424 44 m 792 93 q 824 169 792 140 q 910 199 856 199 q 996 169 964 199 q 1028 93 1028 140 q 996 15 1028 44 q 910 -14 964 -14 q 824 15 856 -14 q 792 93 792 44 z "},"‹":{"ha":647,"x_min":49,"x_max":578,"o":"m 49 347 l 333 646 l 578 646 l 293 347 l 578 49 l 333 49 l 49 347 z "},"›":{"ha":647,"x_min":69,"x_max":599,"o":"m 354 347 l 69 646 l 314 646 l 599 347 l 314 49 l 69 49 l 354 347 z "},"₽":{"ha":1097,"x_min":28,"x_max":1042,"o":"m 167 160 l 28 160 l 28 319 l 167 319 l 167 389 l 28 389 l 28 556 l 167 556 l 167 958 l 639 958 q 940 881 838 958 q 1042 674 1042 804 q 940 466 1042 543 q 639 389 838 389 l 375 389 l 375 319 l 750 319 l 750 160 l 375 160 l 375 0 l 167 0 l 167 160 m 632 556 q 777 588 735 556 q 819 674 819 621 q 778 759 819 726 q 632 792 736 792 l 375 792 l 375 556 l 632 556 z "},"№":{"ha":1813,"x_min":97,"x_max":1764,"o":"m 97 958 l 375 958 l 876 258 l 886 258 l 886 958 l 1083 958 l 1083 0 l 806 0 l 304 700 l 294 700 l 294 0 l 97 0 l 97 958 m 1194 715 q 1215 817 1194 772 q 1274 894 1236 863 q 1365 942 1313 925 q 1479 958 1417 958 q 1594 942 1542 958 q 1684 894 1646 925 q 1743 817 1722 863 q 1764 715 1764 772 q 1743 613 1764 658 q 1684 537 1722 568 q 1594 489 1646 506 q 1479 472 1542 472 q 1365 489 1417 472 q 1274 537 1313 506 q 1215 613 1236 568 q 1194 715 1194 658 m 1354 715 q 1385 640 1354 668 q 1479 611 1417 611 q 1573 640 1542 611 q 1604 715 1604 668 q 1573 791 1604 763 q 1479 819 1542 819 q 1385 791 1417 819 q 1354 715 1354 763 m 1194 403 l 1764 403 l 1764 250 l 1194 250 l 1194 403 z "},"−":{"ha":750,"x_min":56,"x_max":694,"o":"m 56 569 l 694 569 l 694 375 l 56 375 l 56 569 z "}}}
